<svg width="68" height="66" viewBox="0 0 68 66" fill="none" xmlns="http://www.w3.org/2000/svg">
<path fill-rule="evenodd" clip-rule="evenodd" d="M25.4748 35.8559C24.4005 38.4595 23.8633 41.3969 23.8633 44.6681H34.9424C34.9424 42.3983 35.5132 40.5958 36.6547 39.2606C37.8633 37.8587 39.3405 36.657 41.0863 35.6556C42.8321 34.6542 44.6115 33.6194 46.4245 32.5513C49.5803 30.6153 52.1319 28.4122 54.0791 25.9421C56.0264 23.4052 57 20.0005 57 15.7279C57 11.1215 55.9592 7.383 53.8777 4.51234C53.8295 4.44431 53.781 4.37671 53.7322 4.30954C62.3691 10.475 68 20.5805 68 32.0011C68 50.3621 53.4457 65.3238 35.2446 65.9788V54.1813H24.0647V64.5265C10.134 60.2766 0 47.3223 0 32.0011C0 17.3263 9.29702 4.82287 22.3224 0.0595703C19.0248 2.2706 16.584 5.22356 15 8.91846L23.7626 14.9268C24.8369 13.1243 26.3477 11.3552 28.295 9.61944C30.2422 7.81693 32.693 6.91568 35.6475 6.91568C38.1319 6.91568 40.3477 7.68341 42.295 9.21888C44.2422 10.6876 45.2158 12.7905 45.2158 15.5276C45.2158 17.3969 44.7122 19.0325 43.705 20.4345C42.765 21.8364 41.5899 23.0715 40.1799 24.1396C38.7698 25.2078 37.3261 26.1424 35.8489 26.9435C34.3717 27.7446 33.1295 28.4456 32.1223 29.0464C28.765 30.9824 26.5492 33.2523 25.4748 35.8559Z" fill="white"/>
</svg>
