<svg width="233" height="49" viewBox="0 0 233 49" fill="none" xmlns="http://www.w3.org/2000/svg">
<rect x="127" width="106" height="49" fill="#DE0303"/>
<rect width="124" height="49" fill="#11002C"/>
<path d="M7 40.6977V27H10.563V37.418H16.4465V40.6977H7Z" fill="white"/>
<path d="M22.1831 40.8907C21.0625 40.8907 20.1063 40.6527 19.3145 40.1768C18.5349 39.701 17.938 39.0707 17.5238 38.2862C17.1219 37.5016 16.9209 36.6592 16.9209 35.7588C16.9209 34.7814 17.1219 33.8875 17.5238 33.0772C17.9258 32.254 18.5166 31.5981 19.2962 31.1093C20.0758 30.6077 21.0381 30.3569 22.1831 30.3569C23.3282 30.3569 24.2905 30.6013 25.0701 31.09C25.8497 31.5788 26.4405 32.2219 26.8425 33.0193C27.2444 33.8167 27.4454 34.6849 27.4454 35.6238C27.4454 36.0225 27.415 36.3955 27.3541 36.7428H20.6118C20.6483 37.283 20.8371 37.6752 21.1782 37.9196C21.5193 38.1511 21.8908 38.2669 22.2928 38.2669C22.6704 38.2669 23.0236 38.1768 23.3525 37.9968C23.6936 37.8167 23.919 37.5659 24.0286 37.2444L26.9704 38.1318C26.5806 38.9421 25.9776 39.6045 25.1615 40.119C24.3453 40.6334 23.3525 40.8907 22.1831 40.8907ZM20.5387 34.5434H23.718C23.6693 34.0547 23.4987 33.6688 23.2064 33.3859C22.9262 33.1029 22.5669 32.9614 22.1283 32.9614C21.6898 32.9614 21.3305 33.1029 21.0503 33.3859C20.7701 33.6688 20.5996 34.0547 20.5387 34.5434Z" fill="white"/>
<path d="M28.0552 37.6302C28.0552 36.9486 28.2319 36.3505 28.5851 35.836C28.9384 35.3087 29.4256 34.8971 30.0469 34.6013C30.6803 34.3055 31.399 34.1576 32.2029 34.1576C32.9825 34.1576 33.6281 34.2862 34.1398 34.5434V34.2347C34.1398 33.7588 34.0058 33.4051 33.7378 33.1736C33.482 32.9421 33.0617 32.8264 32.477 32.8264C31.941 32.8264 31.4355 32.9228 30.9605 33.1158C30.4976 33.2958 30.0103 33.5659 29.4987 33.926L28.4938 31.6495C29.7606 30.7878 31.2041 30.3569 32.8242 30.3569C34.3468 30.3569 35.5223 30.7235 36.3506 31.4566C37.1911 32.1768 37.6114 33.2508 37.6114 34.6785V36.6463C37.6114 36.9936 37.6601 37.2379 37.7576 37.3794C37.855 37.508 38.0256 37.5852 38.2692 37.6109V40.6977C37.989 40.7621 37.721 40.8071 37.4652 40.8328C37.2216 40.8714 37.0023 40.8907 36.8074 40.8907C36.1862 40.8907 35.7111 40.7749 35.3822 40.5434C35.0655 40.299 34.8584 39.9453 34.761 39.4823L34.6879 39.1158C33.8109 40.299 32.7206 40.8907 31.4173 40.8907C30.7838 40.8907 30.2113 40.7492 29.6997 40.4662C29.1881 40.1833 28.7861 39.7974 28.4938 39.3087C28.2014 38.8071 28.0552 38.2476 28.0552 37.6302ZM33.683 37.881C33.9875 37.6624 34.1398 37.4244 34.1398 37.1672V36.4148C33.9449 36.3376 33.7195 36.2733 33.4637 36.2219C33.2201 36.1704 33.0008 36.1447 32.8059 36.1447C32.3918 36.1447 32.0385 36.254 31.7461 36.4727C31.466 36.6913 31.3259 36.9678 31.3259 37.3023C31.3259 37.5852 31.4294 37.8167 31.6365 37.9968C31.8558 38.1768 32.1299 38.2669 32.4587 38.2669C32.9095 38.2669 33.3175 38.1383 33.683 37.881Z" fill="white"/>
<path d="M43.2141 40.6977C42.3858 40.6977 41.6549 40.4727 41.0215 40.0225C40.3881 39.5723 39.8947 38.9614 39.5415 38.1897C39.2004 37.418 39.0299 36.5563 39.0299 35.6045C39.0299 34.5884 39.2187 33.6881 39.5963 32.9035C39.9739 32.119 40.4977 31.5016 41.1677 31.0514C41.8498 30.5884 42.6294 30.3569 43.5065 30.3569C44.1886 30.3569 44.7916 30.5048 45.3154 30.8006C45.8514 31.0836 46.2716 31.5016 46.5761 32.0547V30.5498H49.591V39.7717C49.591 40.8264 49.3474 41.746 48.8601 42.5305C48.3729 43.3151 47.6907 43.9196 46.8137 44.3441C45.9366 44.7814 44.9134 45 43.744 45C42.733 45 41.8437 44.8328 41.0763 44.4984C40.3211 44.164 39.6511 43.6817 39.0664 43.0514L40.8936 41.045C41.2469 41.3923 41.6671 41.6817 42.1544 41.9132C42.6538 42.1576 43.1837 42.2797 43.744 42.2797C44.1703 42.2797 44.5601 42.1961 44.9134 42.0289C45.2788 41.8617 45.5712 41.5916 45.7905 41.2186C46.0097 40.8585 46.1193 40.3762 46.1193 39.7717V39.1158C45.8514 39.6431 45.4494 40.0418 44.9134 40.3119C44.3896 40.5691 43.8232 40.6977 43.2141 40.6977ZM44.4566 37.8039C44.8099 37.8039 45.1144 37.7203 45.3702 37.5531C45.6382 37.373 45.8879 37.1093 46.1193 36.7621V34.9486C45.9488 34.4855 45.693 34.119 45.3519 33.8489C45.023 33.5788 44.6759 33.4437 44.3104 33.4437C43.8232 33.4437 43.409 33.6688 43.0679 34.119C42.7391 34.5563 42.5746 35.0836 42.5746 35.701C42.5746 36.3312 42.7512 36.8392 43.1045 37.2251C43.4577 37.6109 43.9085 37.8039 44.4566 37.8039Z" fill="white"/>
<path d="M51.2621 37.2251V30.5498H54.7338V36.3955C54.7338 36.8328 54.8251 37.1801 55.0079 37.4373C55.2028 37.6817 55.4646 37.8039 55.7935 37.8039C56.0615 37.8039 56.3356 37.7395 56.6158 37.6109C56.8959 37.4823 57.1761 37.1994 57.4563 36.7621V30.5498H60.9279V36.6463C60.9279 36.9936 60.9766 37.2379 61.0741 37.3794C61.1715 37.508 61.3421 37.5852 61.5857 37.6109V40.6977C60.9888 40.8264 60.5016 40.8907 60.124 40.8907C58.9424 40.8907 58.2602 40.4212 58.0775 39.4823L58.0044 39.1158C57.5537 39.746 57.0117 40.2026 56.3782 40.4855C55.757 40.7556 55.0505 40.8907 54.2587 40.8907C53.2964 40.8907 52.5533 40.5756 52.0295 39.9453C51.5179 39.3151 51.2621 38.4084 51.2621 37.2251Z" fill="white"/>
<path d="M67.7377 40.8907C66.6171 40.8907 65.6608 40.6527 64.8691 40.1768C64.0895 39.701 63.4926 39.0707 63.0784 38.2862C62.6764 37.5016 62.4754 36.6592 62.4754 35.7588C62.4754 34.7814 62.6764 33.8875 63.0784 33.0772C63.4804 32.254 64.0712 31.5981 64.8508 31.1093C65.6304 30.6077 66.5927 30.3569 67.7377 30.3569C68.8828 30.3569 69.8451 30.6013 70.6247 31.09C71.4043 31.5788 71.995 32.2219 72.397 33.0193C72.799 33.8167 73 34.6849 73 35.6238C73 36.0225 72.9696 36.3955 72.9086 36.7428H66.1664C66.2029 37.283 66.3917 37.6752 66.7328 37.9196C67.0738 38.1511 67.4454 38.2669 67.8474 38.2669C68.225 38.2669 68.5782 38.1768 68.9071 37.9968C69.2482 37.8167 69.4735 37.5659 69.5832 37.2444L72.5249 38.1318C72.1351 38.9421 71.5322 39.6045 70.716 40.119C69.8999 40.6334 68.9071 40.8907 67.7377 40.8907ZM66.0933 34.5434H69.2726C69.2238 34.0547 69.0533 33.6688 68.7609 33.3859C68.4808 33.1029 68.1214 32.9614 67.6829 32.9614C67.2444 32.9614 66.885 33.1029 66.6049 33.3859C66.3247 33.6688 66.1542 34.0547 66.0933 34.5434Z" fill="white"/>
<path d="M7 22.7514V5.09945H18.8599V9.32597H11.7488V12.2597H17.5448V16.1878H11.7488V22.7514H7Z" fill="white"/>
<path d="M28.8381 13.7017C27.9452 13.7017 27.1334 13.8011 26.4028 14C25.6722 14.1989 25.1284 14.5304 24.7712 14.9945V22.7514H20.1441V9.67403H24.3815V12.1602C24.8361 11.2818 25.4044 10.6105 26.0862 10.1464C26.7681 9.66575 27.4906 9.42542 28.2537 9.42542C28.5621 9.42542 28.7569 9.4337 28.8381 9.45028V13.7017Z" fill="white"/>
<path d="M36.5827 23C35.0891 23 33.8146 22.6934 32.7593 22.0801C31.7203 21.4669 30.9247 20.6547 30.3727 19.6436C29.837 18.6326 29.5691 17.547 29.5691 16.3867C29.5691 15.1271 29.837 13.9751 30.3727 12.9309C30.9085 11.8702 31.6959 11.0249 32.735 10.395C33.774 9.74862 35.0566 9.42542 36.5827 9.42542C38.1089 9.42542 39.3914 9.74033 40.4305 10.3702C41.4696 11 42.257 11.8287 42.7927 12.8564C43.3285 13.884 43.5964 15.0028 43.5964 16.2127C43.5964 16.7265 43.5558 17.2072 43.4746 17.6547H34.4884C34.5371 18.3508 34.7887 18.8564 35.2433 19.1713C35.6979 19.4696 36.1931 19.6188 36.7289 19.6188C37.2322 19.6188 37.703 19.5028 38.1413 19.2707C38.5959 19.0387 38.8963 18.7155 39.0424 18.3011L42.9632 19.4448C42.4437 20.489 41.64 21.3425 40.5523 22.0055C39.4645 22.6685 38.1413 23 36.5827 23ZM34.391 14.8204H38.6284C38.5634 14.1906 38.3362 13.6934 37.9465 13.3287C37.5731 12.9641 37.0942 12.7818 36.5097 12.7818C35.9252 12.7818 35.4463 12.9641 35.0729 13.3287C34.6994 13.6934 34.4722 14.1906 34.391 14.8204Z" fill="white"/>
<path d="M51.4228 23C49.9292 23 48.6547 22.6934 47.5994 22.0801C46.5603 21.4669 45.7648 20.6547 45.2128 19.6436C44.677 18.6326 44.4092 17.547 44.4092 16.3867C44.4092 15.1271 44.677 13.9751 45.2128 12.9309C45.7486 11.8702 46.536 11.0249 47.5751 10.395C48.6141 9.74862 49.8967 9.42542 51.4228 9.42542C52.9489 9.42542 54.2315 9.74033 55.2706 10.3702C56.3096 11 57.097 11.8287 57.6328 12.8564C58.1686 13.884 58.4365 15.0028 58.4365 16.2127C58.4365 16.7265 58.3959 17.2072 58.3147 17.6547H49.3285C49.3772 18.3508 49.6288 18.8564 50.0834 19.1713C50.538 19.4696 51.0332 19.6188 51.5689 19.6188C52.0722 19.6188 52.543 19.5028 52.9814 19.2707C53.436 19.0387 53.7363 18.7155 53.8825 18.3011L57.8033 19.4448C57.2838 20.489 56.4801 21.3425 55.3923 22.0055C54.3046 22.6685 52.9814 23 51.4228 23ZM49.231 14.8204H53.4685C53.4035 14.1906 53.1762 13.6934 52.7866 13.3287C52.4132 12.9641 51.9342 12.7818 51.3498 12.7818C50.7653 12.7818 50.2863 12.9641 49.9129 13.3287C49.5395 13.6934 49.3122 14.1906 49.231 14.8204Z" fill="white"/>
<path d="M78.5195 9.32597H73.5515V22.7514H68.8026V9.32597H63.8103V5.09945H78.5195V9.32597Z" fill="white"/>
<path d="M87.7804 22.9006C86.4654 22.9006 85.2721 22.6519 84.2005 22.1547C83.129 21.6409 82.2036 20.9613 81.4243 20.116C80.6613 19.2541 80.0687 18.2928 79.6465 17.232C79.2407 16.1547 79.0377 15.0442 79.0377 13.9006C79.0377 12.7238 79.2569 11.605 79.6953 10.5442C80.1336 9.48343 80.7424 8.53867 81.5217 7.70995C82.3173 6.86464 83.2508 6.20166 84.3223 5.72099C85.4101 5.24033 86.5953 5 87.8778 5C89.1929 5 90.3862 5.25691 91.4577 5.77072C92.5293 6.26796 93.4466 6.94751 94.2096 7.80939C94.9727 8.67127 95.5571 9.64088 95.963 10.7182C96.3851 11.779 96.5962 12.8729 96.5962 14C96.5962 15.1602 96.377 16.2707 95.9387 17.3315C95.5165 18.3923 94.9077 19.3453 94.1122 20.1906C93.3329 21.0193 92.4075 21.6823 91.336 22.1796C90.2644 22.6602 89.0793 22.9006 87.7804 22.9006ZM83.8596 13.9503C83.8596 14.7293 83.9976 15.4751 84.2736 16.1878C84.5658 16.9006 85.0042 17.4807 85.5887 17.9282C86.1894 18.3757 86.9362 18.5994 87.8291 18.5994C88.7546 18.5994 89.5014 18.3674 90.0696 17.9033C90.6541 17.4392 91.0843 16.8508 91.3603 16.1381C91.6363 15.4088 91.7743 14.663 91.7743 13.9006C91.7743 13.105 91.6282 12.3591 91.336 11.663C91.0437 10.9669 90.6054 10.4033 90.0209 9.97238C89.4364 9.52486 88.6977 9.30111 87.8048 9.30111C86.8956 9.30111 86.1488 9.53315 85.5643 9.99724C84.9798 10.4448 84.5496 11.0249 84.2736 11.7376C83.9976 12.4337 83.8596 13.1713 83.8596 13.9503Z" fill="white"/>
<path d="M103.358 14.0746V22.7514H98.6089V5.09945H102.311L109.251 14.0746V5.09945H114V22.7514H110.225L103.358 14.0746Z" fill="white"/>
<path d="M141.196 37V11.44H148.216V30.88H159.808V37H141.196ZM162.255 37V11.44H169.275V37H162.255ZM178.612 11.44L183.616 28.9L188.548 11.44H195.928L187.108 37H180.124L171.196 11.44H178.612ZM216.084 30.88V37H197.868V11.44H215.76V17.56H204.888V21.16H214.176V26.848H204.888V30.88H216.084Z" fill="white"/>
</svg>
