<svg width="176" height="176" viewBox="0 0 176 176" fill="none" xmlns="http://www.w3.org/2000/svg">
<path d="M88 176C136.601 176 176 136.601 176 88C176 39.3989 136.601 0 88 0C39.3989 0 0 39.3989 0 88C0 136.601 39.3989 176 88 176Z" fill="#E81B23"/>
<path d="M87.9998 167.2C131.741 167.2 167.2 131.741 167.2 87.9998C167.2 44.2589 131.741 8.7998 87.9998 8.7998C44.2589 8.7998 8.7998 44.2589 8.7998 87.9998C8.7998 131.741 44.2589 167.2 87.9998 167.2Z" fill="white"/>
<path fill-rule="evenodd" clip-rule="evenodd" d="M84.5462 33.8731C84.0911 33.8727 83.6332 33.874 83.1726 33.8768C57.9072 34.0354 36.0069 39.7194 36.0093 67.5655C36.0097 74.7754 36.2565 75.3562 40.4679 75.3437C44.6339 75.3308 126.858 75.2439 126.918 75.2447C130.136 75.2847 130.996 74.5024 130.98 69.0024C130.902 40.6688 113.216 33.9022 84.5457 33.874L84.5462 33.8731ZM128.157 78.1665C124.937 78.2309 44.9967 78.2443 39.7742 78.216C37.1691 78.201 36.2566 78.9096 36.2566 81.139C36.2566 85.7506 35.9078 121.368 36.1081 127.163C36.1869 129.441 37.4458 130.113 39.1302 130.136C42.8956 130.185 52.2586 130.308 55.727 130.234C58.1049 130.185 59.1287 129.048 59.2445 125.627C59.353 122.42 59.1935 117.105 59.294 112.35C59.3279 110.746 59.8885 109.575 61.5233 109.526C65.667 109.4 81.5944 109.398 84.7588 109.476C88.7718 109.575 89.4159 109.526 89.5149 113.687C89.6327 118.633 89.6138 121.664 89.4652 125.478C89.3064 129.554 90.6544 129.937 92.8342 129.986C96.0536 130.06 103.486 129.882 107.202 129.937C112.142 130.008 112.05 128.502 112.106 122.06C112.132 119.285 112.111 109.62 112.007 105.215C111.982 104.121 112.552 103.345 113.296 103.333C116.324 103.283 116.955 111.211 117.705 115.173C120.483 129.861 126.907 131.734 132.766 131.77C140.109 131.816 147.107 125.727 147.133 113.191C147.137 111.304 146.737 109.674 145.349 109.674C139.155 109.674 142.772 109.764 139.504 109.674C137.77 109.624 136.234 109.872 136.581 112.547C136.927 115.222 137.08 120.209 133.707 120.325C132.27 120.374 131.131 119.334 131.131 116.411C131.131 113.488 130.925 83.7114 130.834 81.3354C130.784 80.0473 130.735 78.1151 128.159 78.1647L128.157 78.1665Z" fill="#E81B23"/>
<path fill-rule="evenodd" clip-rule="evenodd" d="M76.4292 45.522L79.1844 54.1077L71.8939 59.4801L80.9108 59.5129L83.7674 68.1068L86.585 59.5415L95.641 59.4801L88.3654 54.1537L91.1057 45.522L83.7916 50.7955L76.4292 45.522V45.522ZM104.024 45.6212L106.779 54.2067L99.4884 59.5793L108.505 59.6121L111.362 68.2058L114.179 59.6405L123.235 59.5793L115.96 54.2528L118.7 45.6213L111.386 50.8946L104.024 45.6213V45.6212ZM48.7843 45.6244L51.5395 54.2099L44.249 59.5825L53.2659 59.6151L56.1225 68.209L58.9401 59.6437L67.9961 59.5825L60.7205 54.256L63.4607 45.6245L56.1469 50.8978L48.7844 45.6245L48.7843 45.6244Z" fill="white"/>
</svg>
